<?xml version="1.0" standalone="no"?>
<!DOCTYPE svg PUBLIC "-//W3C//DTD SVG 20010904//EN"
 "http://www.w3.org/TR/2001/REC-SVG-20010904/DTD/svg10.dtd">
<svg version="1.0" xmlns="http://www.w3.org/2000/svg"
 width="1024.000000pt" height="1024.000000pt" viewBox="0 0 1024.000000 1024.000000"
 preserveAspectRatio="xMidYMid meet">

<g transform="translate(0.000000,1024.000000) scale(0.100000,-0.100000)"
fill="#FF0000" stroke="none">
<path d="M4895 9191 c-38 -10 -144 -44 -235 -75 -91 -32 -318 -107 -505 -167
-187 -60 -362 -118 -390 -128 -27 -10 -129 -44 -225 -74 -610 -193 -949 -310
-1080 -374 -102 -50 -125 -66 -200 -142 -71 -71 -94 -103 -133 -181 -81 -165
-92 -220 -92 -471 l0 -216 -40 -11 c-92 -25 -204 -125 -253 -225 -42 -86 -55
-158 -50 -265 4 -80 8 -99 43 -169 111 -225 336 -317 559 -228 185 75 303 293
275 505 -22 156 -124 302 -254 361 -35 16 -74 29 -85 29 -19 0 -20 6 -20 188
0 231 10 295 59 393 45 89 116 189 135 189 7 0 23 -12 37 -26 35 -38 96 -66
270 -122 86 -28 217 -73 290 -100 74 -28 160 -56 192 -63 32 -7 60 -15 62 -18
2 -4 5 -126 6 -273 l2 -266 -34 -28 c-133 -107 -315 -347 -403 -534 -53 -113
-109 -294 -131 -423 -14 -79 -16 -167 -13 -568 l4 -474 31 -115 c54 -197 133
-371 243 -540 66 -100 176 -237 214 -267 12 -10 49 -42 82 -71 l59 -54 -50 24
c-27 12 -156 78 -286 145 -129 67 -255 130 -280 139 -63 22 -117 13 -244 -41
-61 -26 -141 -60 -180 -75 -38 -15 -142 -57 -230 -94 -377 -158 -449 -206
-514 -341 -69 -143 -67 -303 5 -436 52 -95 90 -122 374 -273 149 -79 243 -130
290 -159 52 -32 327 -179 469 -250 l125 -62 88 1 88 1 0 -64 c0 -72 19 -126
49 -143 44 -23 171 62 212 142 11 21 21 38 23 38 3 0 25 -9 51 -20 60 -26 100
-25 126 1 20 20 21 30 17 133 l-4 111 185 75 c343 138 391 172 391 271 0 59
-32 95 -114 129 -55 22 -56 23 -56 62 0 44 18 128 31 142 5 5 30 16 56 25 80
27 105 103 51 160 -11 12 -18 24 -17 26 2 1 40 -8 84 -21 113 -34 492 -131
540 -138 113 -17 477 -26 695 -17 216 8 245 12 355 41 219 58 489 138 580 173
252 96 489 243 679 418 101 94 250 269 329 385 70 104 87 105 127 11 l29 -69
-33 -46 c-70 -100 -71 -140 -8 -308 23 -60 71 -190 107 -289 81 -219 109 -268
204 -356 97 -89 138 -104 286 -103 88 1 121 5 166 22 81 32 147 83 202 154 62
83 89 153 95 253 4 80 4 82 -86 345 -111 325 -144 406 -184 448 -31 31 -120
72 -158 72 -13 0 -22 9 -26 28 -3 15 -11 48 -19 74 l-12 46 50 33 c28 18 92
74 142 123 185 184 305 415 347 670 16 95 15 323 -1 416 -60 335 -253 618
-562 820 -100 66 -199 107 -339 141 -126 31 -403 34 -518 6 -40 -9 -79 -14
-86 -10 -7 5 -35 28 -62 53 l-49 45 3 267 3 267 57 16 c31 9 145 45 252 80
107 35 254 82 325 104 155 48 198 72 242 129 66 87 35 200 -69 253 -21 11
-129 49 -240 85 -112 36 -291 95 -398 130 -107 36 -247 80 -310 100 -138 42
-456 144 -825 264 -395 129 -642 206 -711 224 -80 21 -191 19 -279 -3z m307
-200 c73 -21 277 -86 453 -144 342 -113 808 -263 1150 -371 116 -37 266 -85
335 -107 69 -22 180 -57 247 -78 68 -20 125 -40 128 -42 6 -7 -220 -93 -300
-115 -33 -9 -112 -32 -175 -51 -109 -32 -203 -62 -770 -244 -135 -43 -335
-108 -445 -143 -110 -35 -318 -103 -463 -150 -152 -50 -279 -86 -302 -86 -76
0 -257 51 -685 194 -431 144 -825 269 -879 281 -25 5 -27 8 -15 20 43 42 508
173 864 244 138 27 278 56 312 64 67 16 73 15 73 -17 0 -34 55 -120 105 -164
63 -56 127 -76 224 -70 93 6 162 38 229 106 69 71 97 139 97 237 0 71 -4 89
-33 147 -36 73 -96 134 -166 167 -96 47 -252 35 -330 -24 -54 -41 -114 -122
-122 -162 -3 -18 -10 -33 -14 -33 -31 0 -278 -48 -440 -86 -226 -52 -366 -88
-575 -149 -279 -80 -528 -132 -616 -128 -85 3 -485 143 -463 162 19 16 1094
375 1425 475 64 19 264 85 445 146 300 101 494 157 551 159 12 1 81 -16 155
-38z m-104 -487 c15 -11 22 -25 22 -50 0 -49 -29 -74 -86 -74 -49 0 -74 10
-106 42 -19 19 -19 20 -1 40 48 55 126 74 171 42z m-1578 -1075 c3 -3 28 -17
57 -30 28 -13 49 -27 47 -31 -3 -4 4 -8 16 -8 12 0 25 -10 32 -25 13 -30 20
-31 55 -7 15 9 24 11 20 5 -6 -9 0 -13 18 -13 14 0 33 -5 43 -10 9 -6 53 -23
97 -39 174 -62 385 -141 485 -181 154 -62 545 -189 604 -196 28 -3 58 -8 66
-11 20 -8 73 -3 84 7 5 5 15 6 22 3 8 -3 14 1 14 8 0 7 3 10 6 6 3 -3 21 3 39
13 18 10 66 28 107 40 40 12 102 34 138 50 91 40 195 80 255 97 27 8 118 40
200 70 355 129 351 128 381 114 14 -6 65 -11 114 -11 52 0 90 -4 90 -10 0 -5
6 -7 13 -5 6 3 27 7 46 9 32 4 61 27 41 34 -6 2 -10 8 -10 13 0 6 5 7 10 4 6
-4 10 19 10 61 0 89 6 79 12 -18 6 -91 7 -89 -102 -141 -72 -34 -565 -216
-755 -279 -416 -136 -596 -191 -637 -192 -25 0 -41 -4 -35 -8 8 -5 6 -8 -5 -8
-10 0 -18 5 -18 11 0 5 -4 8 -9 4 -6 -3 -12 16 -14 42 l-3 48 -2 -57 c-1 -31
-6 -59 -11 -62 -20 -13 -447 117 -706 213 -97 37 -224 84 -650 240 -60 23
-138 55 -172 73 -62 32 -63 34 -63 74 0 23 3 62 6 87 6 45 7 45 33 34 14 -6
28 -14 31 -18z m-1283 -253 c16 -8 39 -26 53 -41 22 -23 25 -35 24 -96 0 -38
-3 -72 -7 -75 -3 -4 -18 -6 -33 -6 -15 0 -47 -9 -72 -20 -122 -54 -244 -1
-262 115 -9 58 1 81 49 112 66 44 176 49 248 11z m5258 -145 c322 -66 631
-322 752 -622 68 -168 90 -418 53 -609 -46 -241 -131 -396 -318 -579 -107
-104 -126 -118 -227 -166 -298 -145 -468 -160 -747 -66 -204 69 -305 128 -442
260 -190 185 -283 375 -307 631 -29 305 56 593 236 803 74 85 209 195 310 252
181 102 469 142 690 96z m-3320 -421 c3 -5 -1 -10 -9 -10 -8 0 -18 5 -21 10
-3 6 1 10 9 10 8 0 18 -4 21 -10z m-23 -34 c84 -19 187 -86 271 -176 153 -162
202 -333 163 -570 -21 -128 -58 -201 -155 -304 -41 -43 -42 -53 -3 -23 19 15
62 15 62 1 0 -6 7 -17 15 -24 8 -7 15 -23 15 -36 0 -12 7 -30 16 -38 14 -15
14 -17 0 -22 -28 -11 -56 -69 -56 -117 0 -63 76 -211 148 -289 91 -98 219
-161 357 -176 67 -7 70 -8 68 -32 -2 -14 -6 -149 -9 -301 l-7 -276 -181 -2
c-197 -2 -254 4 -451 50 -226 53 -343 88 -440 130 -11 4 -47 19 -81 32 -81 32
-332 185 -419 256 -106 86 -286 271 -342 353 -61 88 -135 233 -159 309 -12 39
-15 70 -10 103 7 46 7 46 47 46 51 0 155 -50 221 -106 61 -52 111 -69 192 -65
46 2 63 7 77 24 10 12 18 28 19 35 0 6 3 12 8 12 4 0 23 14 42 31 33 29 39 31
95 26 48 -4 56 -3 41 7 -132 80 -249 246 -286 406 -17 72 -17 211 0 280 52
215 234 406 435 456 67 17 237 17 307 0z m2077 -2 c2 -2 -8 -30 -23 -63 -14
-32 -29 -72 -32 -89 -6 -30 -6 -30 -88 -34 -103 -6 -178 -40 -260 -117 -84
-81 -118 -153 -124 -263 -13 -247 158 -438 394 -442 l70 -1 48 -89 c26 -48 45
-91 42 -93 -3 -3 -38 -11 -78 -19 -182 -35 -427 57 -545 206 -54 68 -107 175
-129 260 -23 89 -15 262 15 341 40 106 179 274 281 339 49 31 135 59 220 71
51 7 200 2 209 -7z m-110 -313 c12 -8 13 -20 3 -78 -7 -37 -15 -92 -18 -121
-8 -60 -20 -70 -61 -50 -64 30 -85 150 -36 208 37 45 81 60 112 41z m-1096
-812 c15 -19 17 -45 17 -214 0 -107 4 -205 10 -219 9 -25 8 -26 -28 -26 -44 0
-131 24 -183 51 -84 42 -146 130 -159 222 -6 36 -17 81 -26 99 -31 66 17 119
116 128 86 8 231 -16 253 -41z m-2156 -16 c-3 -10 -5 -4 -5 12 0 17 2 24 5 18
2 -7 2 -21 0 -30z m10 -115 c-3 -7 -5 -2 -5 12 0 14 2 19 5 13 2 -7 2 -19 0
-25z m2520 -70 c-3 -7 -5 -2 -5 12 0 14 2 19 5 13 2 -7 2 -19 0 -25z m200 -80
c-3 -8 -6 -5 -6 6 -1 11 2 17 5 13 3 -3 4 -12 1 -19z m-48 -103 c-18 -31 -47
-68 -62 -83 -18 -17 -10 -1 21 41 28 38 54 78 58 89 3 11 8 17 11 14 3 -3 -9
-30 -28 -61z m-124 -141 c-29 -24 -77 -54 -64 -40 11 12 84 65 89 65 3 0 -8
-11 -25 -25z m2367 -91 c9 -26 16 -48 15 -49 -1 -1 -54 -22 -117 -47 -63 -24
-122 -47 -131 -51 -13 -6 -20 2 -32 36 -8 24 -18 50 -21 59 -6 13 7 19 61 34
37 10 93 29 123 41 78 32 83 31 102 -23z m256 -280 c17 -49 57 -167 90 -263
84 -242 83 -238 32 -284 -55 -50 -143 -89 -200 -89 -65 -1 -139 39 -167 89
-13 21 -38 84 -57 139 -19 55 -50 143 -70 196 -19 53 -36 114 -38 135 l-3 38
104 39 c91 33 253 85 273 86 3 1 20 -38 36 -86z m-5344 -203 c25 -12 46 -23
46 -25 0 -3 -42 -5 -92 -5 l-93 0 40 24 c50 30 44 30 99 6z m-165 -105 c49
-13 91 -16 175 -13 61 3 118 8 126 12 10 4 70 -25 165 -80 127 -73 453 -242
493 -255 10 -3 8 -16 -7 -50 -18 -41 -19 -54 -10 -103 10 -58 7 -76 -15 -76
-14 0 -132 -48 -319 -129 l-118 -51 -62 29 c-65 30 -79 34 -216 56 -70 12 -99
24 -185 73 -139 81 -363 197 -407 211 l-37 12 0 78 c0 42 -5 97 -12 120 -6 24
-9 45 -7 48 16 15 335 142 352 139 11 -2 49 -11 84 -21z m-550 -220 c26 -49
27 -70 4 -60 -10 4 -43 16 -73 26 -30 11 -59 24 -64 29 -10 10 95 61 105 51 4
-3 16 -24 28 -46z m-197 -135 c37 -27 39 -30 17 -30 -13 -1 -37 -11 -53 -24
-26 -21 -28 -29 -23 -65 l5 -40 -29 15 c-31 16 -36 35 -18 81 9 26 50 93 57
93 1 0 21 -13 44 -30z m1906 -65 c28 -13 52 -28 52 -32 0 -5 -30 -17 -67 -27
-38 -10 -76 -21 -87 -24 -17 -5 -18 -1 -11 49 4 30 9 58 12 62 6 10 32 2 101
-28z m-1431 -177 c38 -22 107 -60 154 -82 l86 -41 -33 -40 c-56 -64 -91 -146
-99 -228 l-7 -74 -122 68 c-72 40 -126 77 -133 90 -20 37 -17 222 3 262 27 53
55 87 70 87 7 0 44 -19 81 -42z m1503 -43 c0 -9 -51 -48 -113 -89 -153 -100
-173 -127 -129 -178 21 -25 53 -22 139 12 88 35 116 37 144 9 32 -32 20 -49
-56 -79 -38 -15 -129 -55 -202 -88 l-132 -60 -22 24 c-30 32 -196 134 -229
141 -30 5 -139 -63 -229 -144 -48 -44 -54 -53 -53 -86 1 -21 8 -48 17 -60 8
-12 15 -29 15 -39 0 -34 -21 -18 -45 35 -46 97 -24 216 48 264 17 12 93 47
167 78 74 31 203 86 285 122 373 161 395 168 395 138z m-1075 -187 c-3 -9 6
-14 26 -15 33 -3 59 -18 59 -37 0 -6 -20 -42 -45 -79 -35 -51 -51 -67 -69 -67
-29 0 -100 75 -92 97 3 8 6 20 6 27 0 6 14 28 31 49 22 27 38 37 59 37 19 0
28 -4 25 -12z m402 -610 c-2 -18 -4 -4 -4 32 0 36 2 50 4 33 2 -18 2 -48 0
-65z"/>
<path d="M6447 7253 c10 -3 9 -8 -3 -20 -19 -20 -13 -26 20 -17 15 3 25 9 22
12 -3 3 -1 11 5 19 9 10 5 13 -22 12 -19 0 -28 -3 -22 -6z"/>
<path d="M5078 6817 c-3 -19 -2 -25 4 -19 6 6 8 18 6 28 -3 14 -5 12 -10 -9z"/>
<path d="M7145 6876 c-241 -48 -452 -188 -584 -386 -90 -136 -129 -263 -138
-445 -5 -101 -2 -133 15 -202 68 -270 238 -488 474 -606 181 -92 423 -117 601
-63 203 61 367 178 474 336 67 100 85 137 122 253 79 247 56 486 -66 707 -69
124 -248 275 -405 341 -156 67 -352 93 -493 65z m322 -150 c93 -17 99 -20 203
-89 177 -120 272 -251 314 -437 57 -249 -31 -548 -207 -705 -79 -70 -229 -153
-330 -182 -44 -13 -86 -23 -93 -23 -11 0 -14 23 -14 110 0 61 3 110 7 110 3 0
15 -8 26 -17 13 -13 40 -19 91 -21 62 -3 81 0 127 22 114 53 163 132 157 249
l-3 70 32 9 c38 10 107 85 124 135 6 21 9 61 6 95 -6 73 -38 125 -107 174
l-50 36 0 61 c0 78 -26 127 -94 178 -73 55 -168 65 -263 29 -47 -18 -54 -18
-67 -4 -9 8 -19 27 -22 42 -4 15 -21 41 -38 58 -38 37 -49 99 -19 107 38 10
142 6 220 -7z m-494 -75 c-13 -11 -23 -24 -23 -29 0 -6 -6 -13 -12 -15 -7 -3
2 -4 20 -2 17 2 32 -1 32 -6 0 -6 5 -7 10 -4 8 5 7 11 -1 21 -14 17 -9 19 73
32 32 5 55 6 53 2 -3 -5 11 -11 30 -14 19 -4 35 -11 35 -17 0 -5 11 -14 25
-19 14 -5 25 -17 25 -26 0 -14 -10 -15 -77 -8 -157 17 -208 5 -277 -60 -56
-52 -76 -98 -76 -172 l0 -57 -69 -68 c-74 -71 -91 -106 -91 -187 0 -58 20
-101 72 -156 35 -36 52 -46 76 -46 l32 0 0 -80 c0 -121 42 -199 140 -259 54
-33 121 -41 188 -22 20 6 30 6 27 0 -4 -5 -10 -9 -15 -9 -5 0 -21 -5 -36 -10
-37 -15 -20 -28 39 -31 l47 -3 0 -49 0 -49 -36 7 c-20 3 -44 10 -53 15 -9 4
-43 16 -76 25 -95 27 -187 80 -259 151 -176 171 -263 409 -227 619 15 84 70
222 116 293 65 97 196 213 270 240 42 15 43 14 18 -7z m591 -220 c41 -28 55
-57 56 -120 l0 -54 -97 7 c-54 4 -115 10 -135 13 -36 5 -38 7 -38 43 0 47 30
86 84 111 53 24 94 24 130 0z m-417 -6 c44 -19 39 -28 -8 -15 -18 6 -56 10
-84 11 -40 1 -45 3 -25 9 40 13 78 11 117 -5z m235 -282 c15 -15 35 -46 44
-70 16 -40 16 -46 0 -88 -21 -54 -53 -81 -106 -90 -67 -11 -112 2 -138 39 -51
75 -50 156 3 206 49 46 150 47 197 3z m186 31 c18 -5 22 -13 22 -43 0 -21 -3
-41 -7 -44 -6 -6 -94 68 -101 85 -4 9 53 10 86 2z m142 -40 c57 -34 80 -115
44 -155 -56 -64 -184 -64 -184 -1 0 18 54 138 72 159 14 17 34 16 68 -3z
m-720 -4 c0 -5 7 -10 15 -10 13 0 14 -4 5 -20 -15 -28 -26 -25 -39 10 -8 24
-7 30 5 30 7 0 14 -4 14 -10z m582 -185 c13 -29 12 -31 -25 -40 -24 -6 -27 -4
-27 17 0 24 16 48 32 48 5 0 14 -11 20 -25z m-523 -4 c14 -24 8 -28 -34 -23
-32 4 -45 19 -28 35 13 14 53 6 62 -12z m576 -162 c14 -43 -4 -104 -41 -140
-32 -31 -40 -34 -97 -34 -49 0 -69 5 -94 23 -31 22 -33 27 -33 81 l0 58 63 16
c34 8 92 16 129 16 59 1 67 -1 73 -20z m-648 -81 c-2 -18 -4 -4 -4 32 0 36 2
50 4 33 2 -18 2 -48 0 -65z"/>
<path d="M6925 5430 c3 -5 11 -10 16 -10 6 0 7 5 4 10 -3 6 -11 10 -16 10 -6
0 -7 -4 -4 -10z"/>
<path d="M6976 5411 c-6 -9 35 -24 43 -15 6 5 -18 24 -31 24 -4 0 -9 -4 -12
-9z"/>
<path d="M3894 6381 c-101 -26 -211 -117 -258 -212 -81 -167 -47 -356 89 -495
78 -80 131 -99 270 -99 89 0 106 3 156 28 110 54 194 152 234 276 25 78 17
197 -18 272 -36 74 -127 161 -212 200 -53 25 -82 32 -148 35 -45 2 -96 0 -113
-5z m123 -128 c48 -22 73 -66 73 -126 0 -42 -5 -54 -33 -82 -92 -92 -227 -22
-213 109 6 53 17 70 61 98 37 22 67 23 112 1z"/>
<path d="M2294 3396 c11 -9 24 -16 30 -16 12 0 7 5 -24 19 -24 11 -24 11 -6
-3z"/>
<path d="M2158 5639 c-23 -9 -58 -60 -58 -87 0 -5 -11 -9 -25 -9 -71 0 -120
-57 -106 -123 8 -42 42 -63 87 -55 38 7 49 -6 59 -65 8 -51 17 -60 61 -60 40
0 62 25 66 75 3 37 5 40 30 37 37 -5 83 22 97 56 7 16 11 49 9 73 -3 39 -7 46
-40 64 -21 11 -51 39 -68 63 -32 45 -56 51 -112 31z"/>
<path d="M6929 3447 c-62 -41 -86 -125 -55 -186 26 -50 82 -91 125 -91 43 0
105 39 140 88 81 114 -91 269 -210 189z"/>
<path d="M4895 3265 c-275 -51 -534 -234 -666 -470 -21 -38 -40 -74 -42 -79
-2 -5 -22 11 -45 35 -111 121 -317 164 -465 96 -115 -52 -201 -173 -217 -304
-28 -222 92 -430 276 -478 125 -32 241 -14 336 55 31 22 59 40 61 40 3 0 18
-37 32 -82 34 -103 90 -207 166 -308 129 -171 279 -268 509 -330 74 -20 102
-22 220 -18 119 4 146 9 230 38 216 74 373 179 477 318 64 86 149 249 165 320
7 28 16 52 20 52 4 0 22 -14 40 -30 50 -47 152 -74 247 -67 95 7 150 26 217
77 136 103 201 316 144 477 -45 127 -126 210 -247 253 -135 48 -292 11 -411
-95 l-49 -45 -18 45 c-36 95 -185 261 -307 343 -214 144 -449 199 -673 157z
m392 -204 c253 -87 445 -309 500 -580 13 -64 14 -90 4 -164 -25 -188 -92 -344
-195 -454 -126 -135 -250 -206 -420 -239 -92 -18 -108 -14 -101 25 2 9 4 19 4
24 1 4 10 7 22 7 18 0 20 4 13 48 -3 26 -15 57 -26 69 -13 14 -19 33 -17 55 1
18 1 49 -1 68 -2 27 -4 21 -12 -29 -5 -35 -15 -77 -22 -95 -8 -18 -10 -39 -5
-51 4 -11 8 -47 8 -79 l1 -59 -76 7 c-211 17 -393 118 -509 280 -79 112 -149
279 -162 388 l-6 49 172 -3 c190 -3 186 -2 197 -70 4 -21 10 -38 15 -38 5 0
10 -10 10 -22 l2 -23 4 23 c4 20 9 16 42 -35 38 -57 93 -115 141 -147 13 -9
19 -16 12 -16 -25 0 -77 32 -109 67 -34 38 -80 66 -93 58 -5 -3 -20 0 -35 7
-22 10 -28 9 -41 -10 -8 -12 -22 -22 -29 -22 -19 0 -55 -31 -55 -46 0 -7 -16
-15 -35 -18 -109 -21 6 -84 170 -93 74 -5 106 -1 175 17 55 15 129 25 211 30
114 5 130 9 174 35 71 41 142 116 173 183 24 52 27 68 27 174 0 64 3 114 8
111 10 -6 -65 76 -124 137 -51 52 -108 77 -201 87 l-57 6 1 41 c1 22 0 82 -1
131 -1 50 1 117 4 150 l7 61 77 -9 c42 -4 113 -21 158 -36z m-1352 -369 c84
-41 129 -116 130 -217 1 -249 -273 -345 -400 -141 -26 43 -30 60 -33 135 -3
74 0 92 20 130 54 105 177 146 283 93z m1188 -166 c43 -18 93 -76 108 -127 14
-45 2 -112 -27 -157 -21 -32 -110 -72 -159 -72 -104 1 -196 93 -195 195 1 30
34 97 62 122 51 47 149 65 211 39z"/>
<path d="M4935 1734 c-33 -12 -80 -23 -105 -24 -34 0 -41 -3 -29 -10 20 -12
120 5 161 26 15 8 30 14 33 14 20 -1 25 1 25 10 0 14 -16 11 -85 -16z"/>
<path d="M6925 2621 c-45 -27 -65 -63 -65 -118 0 -62 17 -94 60 -116 93 -48
188 24 178 135 -6 55 -26 83 -77 104 -44 18 -60 18 -96 -5z"/>
</g>
</svg>
